PathFileType	4	(X/Y/Z)	/Users/itak/Documents/Research/Walk-IL/dataset/trc/00025_00004.trc
DataRate	CameraRate	NumFrames	NumMarkers	Units	OrigDataRate	OrigDataStartFrame	OrigNumFrames
100.000000	100.000000	4	53	mm	100.000000	322	860
Frame#	Time	RPSI			LPSI			L3			STRN			T10			C7			CLAV			RBAK			LBAK			LSHO			LUPA			LAEL			LAOL			LWTS			LWPS			LFRA			LIFD			LHPS			LHTS			RSHO			RUPA			RAEL			RAOL			RWTS			RWPS			RFRA			RIFD			RHTS			RHPS			RBHD			LFHD			RFHD			LBHD			LHIP			RHIP			RASI			LASI			LKNE			LTHI			LANK			LTIP			LTOE			LMT1			LMT5			LHEE			RKNE			RTHI			RANK			RTIP			RTOE			RMT1			RMT5			RHEE			
		X1	Y1	Z1	X2	Y2	Z2	X3	Y3	Z3	X4	Y4	Z4	X5	Y5	Z5	X6	Y6	Z6	X7	Y7	Z7	X8	Y8	Z8	X9	Y9	Z9	X10	Y10	Z10	X11	Y11	Z11	X12	Y12	Z12	X13	Y13	Z13	X14	Y14	Z14	X15	Y15	Z15	X16	Y16	Z16	X17	Y17	Z17	X18	Y18	Z18	X19	Y19	Z19	X20	Y20	Z20	X21	Y21	Z21	X22	Y22	Z22	X23	Y23	Z23	X24	Y24	Z24	X25	Y25	Z25	X26	Y26	Z26	X27	Y27	Z27	X28	Y28	Z28	X29	Y29	Z29	X30	Y30	Z30	X31	Y31	Z31	X32	Y32	Z32	X33	Y33	Z33	X34	Y34	Z34	X35	Y35	Z35	X36	Y36	Z36	X37	Y37	Z37	X38	Y38	Z38	X39	Y39	Z39	X40	Y40	Z40	X41	Y41	Z41	X42	Y42	Z42	X43	Y43	Z43	X44	Y44	Z44	X45	Y45	Z45	X46	Y46	Z46	X47	Y47	Z47	X48	Y48	Z48	X49	Y49	Z49	X50	Y50	Z50	X51	Y51	Z51	X52	Y52	Z52	X53	Y53	Z53	

323	3.22	1152.310180664062	1025.786254882812	352.2900695800781	990.646240234375	1003.975341796875	338.1462097167969	1061.943237304688	1078.5966796875	351.4573974609375	1065.900756835938	1257.853759765625	121.3587188720703	1062.263916015625	1223.164916992188	369.1378479003906	1032.829956054688	1486.810424804688	305.5440979003906	1047.826293945312	1383.982177734375	157.2460784912109	1123.776489257812	1361.860229492188	369.69482421875	941.4747314453125	1437.139404296875	327.4796142578125	866.471923828125	1427.582885742188	226.9448852539062	801.991943359375	1301.247924804688	277.02587890625	793.9935302734375	1089.770874023438	318.1775817871094	892.6409301757812	1089.933471679688	360.7083435058594	850.588134765625	828.4894409179688	259.887939453125	823.6463012695312	823.3320922851562	344.8363647460938	792.7263793945312	972.2119750976562	324.448486328125	879.0908813476562	644.807861328125	254.2864685058594	825.6005249023438	729.344970703125	323.8205261230469	840.6136474609375	732.5469360351562	254.3005065917969	1206.77978515625	1482.191284179688	231.7777709960938	1285.597778320312	1424.847900390625	250.3702850341797	1369.518432617188	1172.109375	299.0939331054688	1282.3212890625	1124.83740234375	300.7818908691406	1365.265747070312	947.1652221679688	112.6014099121094	1438.901733398438	927.8029174804688	163.6850738525391	1399.302124023438	1099.514404296875	272.0601501464844	1374.603149414062	775.9799194335938	48.30012130737305	1392.107299804688	856.8259887695312	46.79995727539062	1448.84814453125	845.588134765625	94.94629669189453	971.488525390625	1655.506103515625	235.8474884033203	976.5768432617188	1622.999145507812	19.77753639221191	895.19580078125	1613.930541992188	75.11027526855469	1086.488159179688	1665.008178710938	149.4397583007812	894.1542358398438	896.2769775390625	222.2435150146484	1269.305541992188	919.3141479492188	256.4559936523438	1209.29248046875	941.611328125	140.6443023681641	972.3028564453125	951.5148315429688	121.9672470092773	975.7059936523438	516.0765380859375	9.868134498596191	927.5421142578125	616.0100708007812	93.21977996826172	1023.434814453125	34.91257858276367	-99.07086944580078	984.5494995117188	265.1468811035156	-6.71541690826416	1020.805725097656	125.8870697021484	-304.0312194824219	1053.815551757812	112.4650650024414	-255.3867034912109	967.9138793945312	80.00792694091797	-201.4046173095703	1091.8017578125	25.28610229492188	-47.72500991821289	1244.803955078125	493.21826171875	341.1719970703125	1272.368530273438	754.5833740234375	267.1890869140625	1205.18701171875	57.47910308837891	595.7603149414062	1241.95947265625	379.9869689941406	404.5120544433594	1210.502685546875	31.47032356262207	364.3070373535156	1170.4921875	40.40400314331055	419.9362182617188	1259.23583984375	28.93567848205566	459.1538391113281	1150.117919921875	70.04792022705078	640.8863525390625	
324	3.23	1151.467895507812	1024.659790039062	341.1481323242188	989.8270874023438	1002.662109375	327.4049682617188	1061.118286132812	1077.154663085938	340.5235900878906	1064.085083007812	1256.588500976562	110.7391510009766	1061.283935546875	1221.797485351562	358.3888549804688	1031.15087890625	1485.3896484375	295.1154174804688	1045.857299804688	1382.69775390625	146.7107849121094	1122.531127929688	1360.613891601562	358.9234008789062	939.9908447265625	1435.517944335938	317.3865661621094	864.6288452148438	1425.89111328125	217.1214447021484	800.6192016601562	1299.366333007812	267.3056335449219	793.3983154296875	1087.751708984375	308.3059692382812	892.2068481445312	1088.32763671875	350.4197387695312	850.6293334960938	826.7900390625	249.6775207519531	823.9617919921875	821.4913940429688	334.6351318359375	792.5301513671875	970.293212890625	314.5655822753906	879.9921264648438	643.0958862304688	243.7851867675781	826.0911865234375	727.5403442382812	313.5095520019531	840.8551025390625	730.8094482421875	243.9753570556641	1204.879272460938	1481.138427734375	220.7787933349609	1283.801879882812	1423.905029296875	239.226806640625	1367.93115234375	1171.451049804688	288.6415100097656	1280.79052734375	1124.19287109375	290.6858520507812	1363.314086914062	945.2911376953125	103.6055068969727	1437.11962890625	926.3267822265625	154.6172790527344	1397.663696289062	1098.735473632812	261.94091796875	1372.5263671875	773.6428833007812	40.41836166381836	1389.967407226562	854.4483032226562	38.39691543579102	1446.87646484375	843.6697998046875	86.39752960205078	969.4315795898438	1654.061157226562	225.9949493408203	973.030029296875	1621.715576171875	10.01171875	892.1533813476562	1612.500122070312	65.89350891113281	1083.87939453125	1663.841796875	138.7544097900391	893.2669677734375	894.960693359375	211.6189270019531	1268.417236328125	918.2875366210938	245.3826599121094	1208.373901367188	940.4403686523438	129.4664611816406	971.2566528320312	950.1339111328125	111.1952590942383	973.6721801757812	514.5611572265625	-0.3721619844436646	926.24560546875	614.8375854492188	82.91410064697266	1023.294372558594	32.71975708007812	-105.3606109619141	984.076904296875	263.2349243164062	-15.23652648925781	1018.292785644531	121.135139465332	-311.31640625	1051.818603515625	108.2969284057617	-262.886474609375	966.5770263671875	76.29057312011719	-207.5987548828125	1092.397583007812	24.0078125	-54.69860076904297	1245.585815429688	492.5823974609375	332.1834411621094	1272.010131835938	753.8157958984375	256.9077758789062	1206.229858398438	60.59072113037109	594.91748046875	1242.915405273438	379.9563903808594	397.3157958984375	1210.632202148438	31.4764404296875	364.2944030761719	1170.879150390625	41.03055572509766	419.698974609375	1259.615844726562	28.82712936401367	458.7876586914062	1151.330200195312	74.5806884765625	639.8109130859375	
325	3.24	1150.597412109375	1023.672729492188	329.6778564453125	988.9447021484375	1001.526428222656	316.5055541992188	1060.24609375	1075.840087890625	329.3819274902344	1062.066650390625	1255.488647460938	99.95693969726562	1060.162963867188	1220.546020507812	347.45947265625	1029.287109375	1484.1162109375	284.6090393066406	1043.696655273438	1381.56591796875	136.0583038330078	1121.116821289062	1359.472290039062	348.0191345214844	938.3265991210938	1434.02001953125	307.1815490722656	862.5740356445312	1424.364990234375	207.1690216064453	799.0550537109375	1297.648681640625	257.4522094726562	792.6138305664062	1085.870971679688	298.2698059082031	891.5428466796875	1086.81494140625	339.9498291015625	850.46826171875	825.2496337890625	239.2868347167969	824.1157836914062	819.806884765625	324.2662048339844	792.1327514648438	968.519287109375	304.5338745117188	881.1091918945312	641.5238037109375	233.2146759033203	826.4215087890625	725.8837890625	303.043212890625	840.9236450195312	729.2393798828125	233.4729919433594	1202.794189453125	1480.218627929688	209.6783447265625	1281.814575195312	1423.081665039062	227.9685974121094	1366.097412109375	1170.912231445312	278.0837707519531	1278.996215820312	1123.736206054688	280.4559936523438	1361.298950195312	943.3192749023438	94.77256774902344	1435.228759765625	924.8428955078125	145.7949981689453	1395.804443359375	1098.066650390625	251.8073577880859	1370.451782226562	771.1141357421875	32.9617919921875	1387.834228515625	851.8980102539062	30.30216217041016	1444.859375	841.6184692382812	78.24617004394531	967.224609375	1652.80126953125	216.0772399902344	969.3119506835938	1620.620483398438	0.1831799894571304	888.97119140625	1611.279174804688	56.63211059570312	1081.108276367188	1662.863525390625	128.0001373291016	892.184814453125	893.8372192382812	200.8887023925781	1267.375732421875	917.3084106445312	233.8974304199219	1207.186889648438	939.3585815429688	117.9494934082031	969.9474487304688	948.9339599609375	100.2725067138672	971.4362182617188	513.0983276367188	-10.82733821868896	924.71240234375	613.8215942382812	72.5318603515625	1023.438171386719	30.38652038574219	-110.11181640625	983.6488037109375	261.3471984863281	-23.34012222290039	1017.082214355469	114.8021697998047	-317.5163879394531	1050.847900390625	102.7832946777344	-269.1151123046875	965.9979858398438	71.73020935058594	-212.7450561523438	1093.0625	22.94636344909668	-59.86088180541992	1246.4033203125	491.9447326660156	322.5682678222656	1271.530395507812	753.0952758789062	246.12451171875	1207.445190429688	64.08106231689453	593.8863525390625	1243.96728515625	379.9824829101562	389.607177734375	1210.77294921875	31.49831581115723	364.3431701660156	1171.29345703125	41.73511123657227	419.4056701660156	1260.043334960938	28.70603942871094	458.3439331054688	1152.751220703125	79.66141510009766	638.4620361328125	
326	3.25	1149.718017578125	1022.851684570312	317.8843383789062	988.00439453125	1000.620178222656	305.475830078125	1059.325927734375	1074.679931640625	318.0384826660156	1059.848266601562	1254.578002929688	89.03144836425781	1058.908935546875	1219.44580078125	336.3612365722656	1027.24853515625	1483.028930664062	274.0343017578125	1041.348999023438	1380.60595703125	125.3003387451172	1119.536010742188	1358.470092773438	336.9925231933594	936.4874877929688	1432.677001953125	296.8736267089844	860.3033447265625	1423.023681640625	197.0982360839844	797.3107299804688	1296.108642578125	247.47998046875	791.636474609375	1084.145385742188	288.0863647460938	890.6557006835938	1085.424560546875	329.3359069824219	850.10546875	823.88623046875	228.7222290039062	824.0975952148438	818.2921142578125	313.7329711914062	791.5354614257812	966.9004516601562	294.3546142578125	882.3806762695312	640.116455078125	222.5691223144531	826.584228515625	724.3898315429688	292.4208984375	840.812255859375	727.8533325195312	222.7951354980469	1200.5380859375	1479.453247070312	198.4825134277344	1279.646850585938	1422.392578125	216.6009674072266	1364.023803710938	1170.498901367188	267.4109802246094	1276.933471679688	1123.432250976562	270.0969848632812	1359.217407226562	941.2625122070312	86.09841918945312	1433.234497070312	923.3781127929688	137.1951599121094	1393.73046875	1097.517333984375	241.6455230712891	1368.392333984375	768.4208374023438	25.92464637756348	1385.70458984375	849.2027587890625	22.51416397094727	1442.8037109375	839.467529296875	70.47963714599609	964.8737182617188	1651.768432617188	206.0969696044922	965.4270629882812	1619.740600585938	-9.715854644775391	885.6415405273438	1610.289184570312	47.31965255737305	1078.17138671875	1662.109985351562	117.1722412109375	890.891845703125	892.9637451171875	190.089111328125	1266.174438476562	916.3776245117188	221.994140625	1205.708740234375	938.36962890625	106.1062774658203	968.3656616210938	947.9422607421875	89.23785400390625	969.0209350585938	511.7572326660156	-21.43231391906738	922.9607543945312	612.9890747070312	62.14237594604492	1023.738891601562	28.13448333740234	-113.6409225463867	983.1862182617188	259.6127014160156	-31.15846252441406	1016.913269042969	107.171760559082	-322.8991394042969	1050.68408203125	96.1973876953125	-274.3814697265625	965.986328125	66.57378387451172	-217.1020355224609	1093.717407226562	22.31745529174805	-63.57645034790039	1247.242065429688	491.2834167480469	312.2275695800781	1270.902709960938	752.4151000976562	234.7973327636719	1208.844848632812	67.99826049804688	592.6083984375	1245.108276367188	380.07275390625	381.303955078125	1210.919067382812	31.53595352172852	364.4803466796875	1171.730712890625	42.52372360229492	419.0433654785156	1260.51611328125	28.58979988098145	457.8153991699219	1154.397583007812	85.35478210449219	636.7538452148438	
